# xmcd
#
# Track frame offsets:
#	150
#	10665
#	25723
#	36333
#	52003
#	64768
#	77935
#	92485
#	107620
#	125120
#	136448
#	146840
#	159805
#	174433
#	184953
#	196488
#	206393
#	220403
#	232788
#	246675
#
# Disc length: 3480 seconds
#
# Revision: 0
# Processed by: cddbd v1.4PL0 Copyright (c) Steve Scherf et al.
# Submitted via: audiograbber 1.80
#
DISCID=1e0d9614
DTITLE=Kenny Rogers - The Kenny Rogers Collection (20 Golden Hits)
DYEAR=1900
DGENRE=
TTITLE0=Ticket To Nowhere
TTITLE1=Conditions (Just Dropped In)
TTITLE2=She Even Woke Me Up To Say Goodbye
TTITLE3=My Washington Woman
TTITLE4=Run Through Your Mind
TTITLE5=Sleep Comes Easy
TTITLE6=After All (I Live My Life)
TTITLE7=For The Good Times
TTITLE8=Something Burning
TTITLE9=Hurry Up, Love
TTITLE10=Trying Just As Hard
TTITLE11=Ruby Don't Take Your Love To Town
TTITLE12=Heed The Call
TTITLE13=We All Got To Help Each Other
TTITLE14=Poem For My Little Lady
TTITLE15=Where Does Rosie Go
TTITLE16=Sunshine
TTITLE17=Rubin James
TTITLE18=Loser
TTITLE19=Church Without A Name
EXTD=
EXTT0=
EXTT1=
EXTT2=
EXTT3=
EXTT4=
EXTT5=
EXTT6=
EXTT7=
EXTT8=
EXTT9=
EXTT10=
EXTT11=
EXTT12=
EXTT13=
EXTT14=
EXTT15=
EXTT16=
EXTT17=
EXTT18=
EXTT19=
PLAYORDER=
